<svg xmlns="http://www.w3.org/2000/svg" width="75" height="75" viewBox="0 0 75 75">
  <g id="Group_493" data-name="Group 493" transform="translate(-150 -642)">
    <g id="Path_289" data-name="Path 289" transform="translate(150 642)" fill="none">
      <path d="M37.5,0A37.5,37.5,0,1,1,0,37.5,37.5,37.5,0,0,1,37.5,0Z" stroke="none"/>
      <path d="M 37.5 3 C 32.84121322631836 3 28.3233642578125 3.911766052246094 24.07196426391602 5.709953308105469 C 19.96408843994141 7.447441101074219 16.27420043945313 9.9354248046875 13.10481262207031 13.10481262207031 C 9.9354248046875 16.27420043945313 7.447441101074219 19.96408843994141 5.709953308105469 24.07196426391602 C 3.911766052246094 28.3233642578125 3 32.84121322631836 3 37.5 C 3 42.15878677368164 3.911766052246094 46.6766357421875 5.709953308105469 50.92803955078125 C 7.447441101074219 55.03591156005859 9.9354248046875 58.72579956054688 13.10481262207031 61.89518737792969 C 16.27420043945313 65.0645751953125 19.96408843994141 67.55256652832031 24.07196426391602 69.29004669189453 C 28.3233642578125 71.08823394775391 32.84121322631836 72 37.5 72 C 42.15878677368164 72 46.6766357421875 71.08823394775391 50.92803955078125 69.29004669189453 C 55.03591156005859 67.55256652832031 58.72579956054688 65.0645751953125 61.89518737792969 61.89518737792969 C 65.0645751953125 58.72579956054688 67.55256652832031 55.03591156005859 69.29004669189453 50.92803955078125 C 71.08823394775391 46.6766357421875 72 42.15878677368164 72 37.5 C 72 32.84121322631836 71.08823394775391 28.3233642578125 69.29004669189453 24.07196426391602 C 67.55256652832031 19.96408843994141 65.0645751953125 16.27420043945313 61.89518737792969 13.10481262207031 C 58.72579956054688 9.9354248046875 55.03591156005859 7.447441101074219 50.92803955078125 5.709953308105469 C 46.6766357421875 3.911766052246094 42.15878677368164 3 37.5 3 M 37.5 0 C 58.21067428588867 0 75 16.78932571411133 75 37.5 C 75 58.21067428588867 58.21067428588867 75 37.5 75 C 16.78932571411133 75 0 58.21067428588867 0 37.5 C 0 16.78932571411133 16.78932571411133 0 37.5 0 Z" stroke="none" fill="#341931"/>
    </g>
    <g id="Icon_ionic-ios-qr-scanner" data-name="Icon ionic-ios-qr-scanner" transform="translate(169.75 662)">
      <path id="Path_914" data-name="Path 914" d="M12.234,4.5H8.1A4.726,4.726,0,0,0,3.375,9.225v4.134a.984.984,0,0,0,1.969,0v-4.2a2.7,2.7,0,0,1,.823-1.842A2.685,2.685,0,0,1,8.03,6.469h4.2a.984.984,0,0,0,0-1.969Z" fill="#341931"/>
      <path id="Path_915" data-name="Path 915" d="M27.97,4.5h-4.2a.984.984,0,0,0,0,1.969h4.2a2.685,2.685,0,0,1,1.863.844,2.7,2.7,0,0,1,.823,1.842v4.2a.984.984,0,0,0,1.969,0v-4.2A4.66,4.66,0,0,0,27.97,4.5Z" fill="#341931"/>
      <path id="Path_916" data-name="Path 916" d="M12.234,29.531H8.03a2.685,2.685,0,0,1-1.863-.844,2.7,2.7,0,0,1-.823-1.842v-4.2a.984.984,0,0,0-1.969,0v4.2A4.66,4.66,0,0,0,8.03,31.5h4.2a.984.984,0,0,0,0-1.969Z" fill="#341931"/>
      <path id="Path_917" data-name="Path 917" d="M31.641,21.656a.987.987,0,0,0-.984.984v4.2a2.862,2.862,0,0,1-2.686,2.686h-4.2a.984.984,0,0,0,0,1.969H27.9a4.731,4.731,0,0,0,4.725-4.725V22.641A.987.987,0,0,0,31.641,21.656Z" fill="#341931"/>
    </g>
  </g>
</svg>
