<svg xmlns="http://www.w3.org/2000/svg" width="75" height="75" viewBox="0 0 75 75">
  <g id="Group_491" data-name="Group 491" transform="translate(-245 -642)">
    <g id="Path_289" data-name="Path 289" transform="translate(245 642)" fill="#ff1168">
      <path d="M 37.5 73.5 C 32.63936614990234 73.5 27.9249324798584 72.54837799072266 23.48763275146484 70.67155456542969 C 19.20095634460449 68.85844421386719 15.35082244873047 66.26249694824219 12.04415512084961 62.95584487915039 C 8.737500190734863 59.64917755126953 6.141555786132813 55.79904556274414 4.328444480895996 51.51236724853516 C 2.451622247695923 47.07506561279297 1.5 42.36063385009766 1.5 37.5 C 1.5 32.63936614990234 2.451622247695923 27.9249324798584 4.328444480895996 23.48763275146484 C 6.141555786132813 19.20095634460449 8.737500190734863 15.35082244873047 12.04415512084961 12.04415512084961 C 15.35082244873047 8.737500190734863 19.20095634460449 6.141555786132813 23.48763275146484 4.328444480895996 C 27.9249324798584 2.451622247695923 32.63936614990234 1.5 37.5 1.5 C 42.36063385009766 1.5 47.07506561279297 2.451622247695923 51.51236724853516 4.328444480895996 C 55.79904556274414 6.141555786132813 59.64917755126953 8.737500190734863 62.95584487915039 12.04415512084961 C 66.26249694824219 15.35082244873047 68.85844421386719 19.20095634460449 70.67155456542969 23.48763275146484 C 72.54837799072266 27.9249324798584 73.5 32.63936614990234 73.5 37.5 C 73.5 42.36063385009766 72.54837799072266 47.07506561279297 70.67155456542969 51.51236724853516 C 68.85844421386719 55.79904556274414 66.26249694824219 59.64917755126953 62.95584487915039 62.95584487915039 C 59.64917755126953 66.26249694824219 55.79904556274414 68.85844421386719 51.51236724853516 70.67155456542969 C 47.07506561279297 72.54837799072266 42.36063385009766 73.5 37.5 73.5 Z" stroke="none"/>
      <path d="M 37.5 3 C 32.84121322631836 3 28.3233642578125 3.911766052246094 24.07196426391602 5.709953308105469 C 19.96408843994141 7.447441101074219 16.27420043945313 9.9354248046875 13.10481262207031 13.10481262207031 C 9.9354248046875 16.27420043945313 7.447441101074219 19.96408843994141 5.709953308105469 24.07196426391602 C 3.911766052246094 28.3233642578125 3 32.84121322631836 3 37.5 C 3 42.15878677368164 3.911766052246094 46.6766357421875 5.709953308105469 50.92803955078125 C 7.447441101074219 55.03591156005859 9.9354248046875 58.72579956054688 13.10481262207031 61.89518737792969 C 16.27420043945313 65.0645751953125 19.96408843994141 67.55256652832031 24.07196426391602 69.29004669189453 C 28.3233642578125 71.08823394775391 32.84121322631836 72 37.5 72 C 42.15878677368164 72 46.6766357421875 71.08823394775391 50.92803955078125 69.29004669189453 C 55.03591156005859 67.55256652832031 58.72579956054688 65.0645751953125 61.89518737792969 61.89518737792969 C 65.0645751953125 58.72579956054688 67.55256652832031 55.03591156005859 69.29004669189453 50.92803955078125 C 71.08823394775391 46.6766357421875 72 42.15878677368164 72 37.5 C 72 32.84121322631836 71.08823394775391 28.3233642578125 69.29004669189453 24.07196426391602 C 67.55256652832031 19.96408843994141 65.0645751953125 16.27420043945313 61.89518737792969 13.10481262207031 C 58.72579956054688 9.9354248046875 55.03591156005859 7.447441101074219 50.92803955078125 5.709953308105469 C 46.6766357421875 3.911766052246094 42.15878677368164 3 37.5 3 M 37.5 0 C 58.21067428588867 0 75 16.78932571411133 75 37.5 C 75 58.21067428588867 58.21067428588867 75 37.5 75 C 16.78932571411133 75 0 58.21067428588867 0 37.5 C 0 16.78932571411133 16.78932571411133 0 37.5 0 Z" stroke="none" fill="#fff"/>
    </g>
    <path id="_ionicons_svg_ios-heart" d="M70.8,56h-.075A8.534,8.534,0,0,0,63.6,59.9,8.534,8.534,0,0,0,56.475,56H56.4A8.479,8.479,0,0,0,48,64.475a18.256,18.256,0,0,0,3.585,9.953C56.1,80.6,63.6,86,63.6,86s7.5-5.4,12.015-11.572A18.256,18.256,0,0,0,79.2,64.475,8.479,8.479,0,0,0,70.8,56Z" transform="translate(219 609)" fill="#fff"/>
  </g>
</svg>
