<svg xmlns="http://www.w3.org/2000/svg" width="75" height="75" viewBox="0 0 75 75">
  <g id="Group_494" data-name="Group 494" transform="translate(-55 -642)">
    <path id="Path_289" data-name="Path 289" d="M37.5,0A37.5,37.5,0,1,1,0,37.5,37.5,37.5,0,0,1,37.5,0Z" transform="translate(55 642)" fill="#ff1168"/>
    <path id="_ionicons_svg_ios-musical-note" d="M154.328,48.017c-.339.065-8.514,1.739-8.817,1.8a.64.64,0,0,0-.584.577V68.8a1.99,1.99,0,0,1-.173.844,1.923,1.923,0,0,1-1.162.916c-.238.079-.563.152-.945.238-1.739.39-4.646,1.053-4.646,3.737a3.347,3.347,0,0,0,2.525,3.4,5.42,5.42,0,0,0,1,.072,8.539,8.539,0,0,0,3.694-.952,3.887,3.887,0,0,0,1.739-3.449V57.029a.573.573,0,0,1,.462-.563l6.7-1.371a1.159,1.159,0,0,0,.924-1.133v-5.4A.571.571,0,0,0,154.328,48.017Z" transform="translate(-54 616.997)" fill="#fff"/>
  </g>
</svg>
