<svg xmlns="http://www.w3.org/2000/svg" width="75" height="75" viewBox="0 0 75 75">
  <g id="Group_489" data-name="Group 489" transform="translate(-55 -642)">
    <g id="Path_289" data-name="Path 289" transform="translate(55 642)" fill="none">
      <path d="M37.5,0A37.5,37.5,0,1,1,0,37.5,37.5,37.5,0,0,1,37.5,0Z" stroke="none"/>
      <path d="M 37.5 3 C 32.84121322631836 3 28.3233642578125 3.911766052246094 24.07196426391602 5.709953308105469 C 19.96408843994141 7.447441101074219 16.27420043945313 9.9354248046875 13.10481262207031 13.10481262207031 C 9.9354248046875 16.27420043945313 7.447441101074219 19.96408843994141 5.709953308105469 24.07196426391602 C 3.911766052246094 28.3233642578125 3 32.84121322631836 3 37.5 C 3 42.15878677368164 3.911766052246094 46.6766357421875 5.709953308105469 50.92803955078125 C 7.447441101074219 55.03591156005859 9.9354248046875 58.72579956054688 13.10481262207031 61.89518737792969 C 16.27420043945313 65.0645751953125 19.96408843994141 67.55256652832031 24.07196426391602 69.29004669189453 C 28.3233642578125 71.08823394775391 32.84121322631836 72 37.5 72 C 42.15878677368164 72 46.6766357421875 71.08823394775391 50.92803955078125 69.29004669189453 C 55.03591156005859 67.55256652832031 58.72579956054688 65.0645751953125 61.89518737792969 61.89518737792969 C 65.0645751953125 58.72579956054688 67.55256652832031 55.03591156005859 69.29004669189453 50.92803955078125 C 71.08823394775391 46.6766357421875 72 42.15878677368164 72 37.5 C 72 32.84121322631836 71.08823394775391 28.3233642578125 69.29004669189453 24.07196426391602 C 67.55256652832031 19.96408843994141 65.0645751953125 16.27420043945313 61.89518737792969 13.10481262207031 C 58.72579956054688 9.9354248046875 55.03591156005859 7.447441101074219 50.92803955078125 5.709953308105469 C 46.6766357421875 3.911766052246094 42.15878677368164 3 37.5 3 M 37.5 0 C 58.21067428588867 0 75 16.78932571411133 75 37.5 C 75 58.21067428588867 58.21067428588867 75 37.5 75 C 16.78932571411133 75 0 58.21067428588867 0 37.5 C 0 16.78932571411133 16.78932571411133 0 37.5 0 Z" stroke="none" fill="#341931"/>
    </g>
    <path id="_ionicons_svg_ios-musical-note" d="M154.328,48.017c-.339.065-8.514,1.739-8.817,1.8a.64.64,0,0,0-.584.577V68.8a1.99,1.99,0,0,1-.173.844,1.923,1.923,0,0,1-1.162.916c-.238.079-.563.152-.945.238-1.739.39-4.646,1.053-4.646,3.737a3.347,3.347,0,0,0,2.525,3.4,5.42,5.42,0,0,0,1,.072,8.539,8.539,0,0,0,3.694-.952,3.887,3.887,0,0,0,1.739-3.449V57.029a.573.573,0,0,1,.462-.563l6.7-1.371a1.159,1.159,0,0,0,.924-1.133v-5.4A.571.571,0,0,0,154.328,48.017Z" transform="translate(-54 616.997)" fill="#341931" stroke="#341931" stroke-width="1"/>
  </g>
</svg>
